<svg width="148" height="83" viewBox="0 0 148 83" fill="none" xmlns="http://www.w3.org/2000/svg">
<g filter="url(#filter0_di_58_419)">
<path d="M62.6216 34.6474H65.5111V50.7468H62.6216V34.6474Z" fill="#363636"/>
<path d="M67.8145 39.2586H70.4071V40.2723C71.1724 39.464 72.0695 39.0598 73.0987 39.0598C73.5604 39.0598 73.9563 39.1791 74.2861 39.4176C74.6159 39.6429 74.86 39.9874 75.0184 40.4511C75.81 39.5236 76.7731 39.0598 77.9078 39.0598C78.5411 39.0598 79.0491 39.2917 79.4317 39.7555C79.8275 40.2193 80.0254 40.8884 80.0254 41.7629V50.7468H77.4526V42.0213C77.4526 41.5973 77.38 41.2992 77.2349 41.1269C77.103 40.9547 76.8985 40.8685 76.6214 40.8685C76.4103 40.8685 76.1728 40.9282 75.9089 41.0474C75.6583 41.1667 75.4274 41.3323 75.2163 41.5443V41.7629V50.7468H72.6633V42.0213C72.6633 41.5973 72.5907 41.2992 72.4456 41.1269C72.3004 40.9547 72.0893 40.8685 71.8123 40.8685C71.6012 40.8685 71.3703 40.9282 71.1196 41.0474C70.8689 41.1667 70.6314 41.3323 70.4071 41.5443V50.7468H67.8145V39.2586Z" fill="#363636"/>
<path d="M85.4832 50.9256C84.2561 50.9256 83.3392 50.5878 82.7322 49.912C82.1253 49.223 81.8219 48.2292 81.8219 46.9306V43.0747C81.8219 41.7762 82.1253 40.789 82.7322 40.1133C83.3392 39.4242 84.2561 39.0797 85.4832 39.0797C86.7102 39.0797 87.6271 39.4242 88.2341 40.1133C88.8542 40.789 89.1642 41.7762 89.1642 43.0747V46.9306C89.1642 48.2292 88.8542 49.223 88.2341 49.912C87.6271 50.5878 86.7102 50.9256 85.4832 50.9256ZM85.5029 49.0573C85.9119 49.0573 86.1824 48.8983 86.3144 48.5803C86.4463 48.249 86.5123 47.7654 86.5123 47.1294V42.8959C86.5123 42.2598 86.4463 41.7762 86.3144 41.4449C86.1824 41.1137 85.9119 40.948 85.5029 40.948C85.0807 40.948 84.8037 41.1137 84.6717 41.4449C84.5398 41.7762 84.4738 42.2598 84.4738 42.8959V47.1294C84.4738 47.7654 84.5398 48.249 84.6717 48.5803C84.8037 48.8983 85.0807 49.0573 85.5029 49.0573ZM85.8592 34.1704H88.5903L86.2352 38.1456H84.6717L85.8592 34.1704Z" fill="#363636"/>
<path d="M90.2543 39.2586H92.8666L94.0343 47.507L95.1821 39.2586H97.7747L95.4988 50.7468H92.5104L90.2543 39.2586Z" fill="#363636"/>
<path d="M102.491 50.9256C101.224 50.9256 100.294 50.5745 99.7003 49.8722C99.1066 49.1567 98.8097 48.1033 98.8097 46.712V43.2934C98.8097 41.8888 99.1066 40.8354 99.7003 40.1331C100.307 39.4309 101.237 39.0797 102.491 39.0797C103.784 39.0797 104.694 39.4441 105.222 40.1729C105.763 40.9017 106.033 42.0014 106.033 43.4722V45.1219H101.481V47.3878C101.481 47.9443 101.561 48.3484 101.719 48.6002C101.89 48.8519 102.154 48.9778 102.511 48.9778C102.854 48.9778 103.098 48.8586 103.243 48.6201C103.401 48.3683 103.48 47.9907 103.48 47.4871V46.5132H106.014V47.3083C106.014 48.4876 105.717 49.3886 105.123 50.0114C104.529 50.6209 103.652 50.9256 102.491 50.9256ZM103.48 43.7903V42.6971C103.48 42.1008 103.408 41.6768 103.263 41.425C103.117 41.16 102.86 41.0275 102.491 41.0275C102.108 41.0275 101.844 41.1667 101.699 41.4449C101.554 41.7232 101.481 42.24 101.481 42.9952V43.7903H103.48Z" fill="#363636"/>
<path d="M107.939 35.1841H110.63V37.43H107.939V35.1841ZM107.939 39.2586H110.63V50.7468H107.939V39.2586Z" fill="#363636"/>
<path d="M115.876 50.9256C114.913 50.9256 114.121 50.6673 113.501 50.1505C112.881 49.6337 112.439 48.8784 112.175 47.8847L114.174 47.1095C114.477 48.3948 115.032 49.0374 115.836 49.0374C116.14 49.0374 116.371 48.9579 116.529 48.7989C116.701 48.6399 116.786 48.4213 116.786 48.143C116.786 47.8383 116.694 47.56 116.509 47.3083C116.325 47.0433 115.995 46.712 115.52 46.3145L114.154 45.1219C113.574 44.6449 113.145 44.1811 112.868 43.7306C112.591 43.2801 112.452 42.7302 112.452 42.0809C112.452 41.1799 112.756 40.4578 113.363 39.9145C113.983 39.358 114.761 39.0797 115.698 39.0797C116.595 39.0797 117.327 39.3513 117.895 39.8946C118.462 40.4246 118.831 41.1468 119.003 42.0611L117.242 42.8163C117.136 42.2863 116.958 41.8557 116.707 41.5244C116.47 41.1799 116.16 41.0077 115.777 41.0077C115.5 41.0077 115.276 41.0938 115.104 41.266C114.946 41.4383 114.867 41.6569 114.867 41.9219C114.867 42.1339 114.959 42.3592 115.144 42.5977C115.328 42.8362 115.605 43.1145 115.975 43.4325L117.36 44.7045C117.954 45.2213 118.409 45.7182 118.726 46.1952C119.056 46.659 119.221 47.2221 119.221 47.8847C119.221 48.8519 118.904 49.6006 118.271 50.1306C117.651 50.6606 116.852 50.9256 115.876 50.9256Z" fill="#363636"/>
<path d="M125.505 39.2586H128.197V40.3915C129.107 39.517 130.031 39.0797 130.967 39.0797C131.614 39.0797 132.096 39.3182 132.412 39.7952C132.742 40.2723 132.907 40.8752 132.907 41.6039V50.7468H130.215V42.1406C130.215 41.7696 130.156 41.4979 130.037 41.3257C129.932 41.1534 129.734 41.0673 129.444 41.0673C129.127 41.0673 128.711 41.2528 128.197 41.6238V50.7468H125.505V39.2586Z" fill="#363636"/>
<path d="M138.342 50.9256C137.115 50.9256 136.198 50.5878 135.591 49.912C134.984 49.223 134.681 48.2292 134.681 46.9306V43.0747C134.681 41.7762 134.984 40.789 135.591 40.1133C136.198 39.4242 137.115 39.0797 138.342 39.0797C139.569 39.0797 140.486 39.4242 141.093 40.1133C141.713 40.789 142.023 41.7762 142.023 43.0747V46.9306C142.023 48.2292 141.713 49.223 141.093 49.912C140.486 50.5878 139.569 50.9256 138.342 50.9256ZM138.362 49.0573C138.771 49.0573 139.041 48.8983 139.173 48.5803C139.305 48.249 139.371 47.7654 139.371 47.1294V42.8959C139.371 42.2598 139.305 41.7762 139.173 41.4449C139.041 41.1137 138.771 40.948 138.362 40.948C137.94 40.948 137.663 41.1137 137.531 41.4449C137.399 41.7762 137.333 42.2598 137.333 42.8959V47.1294C137.333 47.7654 137.399 48.249 137.531 48.5803C137.663 48.8983 137.94 49.0573 138.362 49.0573Z" fill="#363636"/>
<path d="M62.5425 58.7027H64.5809L68.4797 67.8853V58.7027H70.8942V74.802H68.9547L65.0361 65.1822V74.802H62.5425V58.7027Z" fill="#363636"/>
<path d="M80.1744 74.9809C78.9474 74.9809 78.0305 74.643 77.4235 73.9673C76.8166 73.2782 76.5132 72.2844 76.5132 70.9859V67.13C76.5132 65.8315 76.8166 64.8443 77.4235 64.1685C78.0305 63.4795 78.9474 63.135 80.1744 63.135C81.4015 63.135 82.3184 63.4795 82.9254 64.1685C83.5455 64.8443 83.8555 65.8315 83.8555 67.13V70.9859C83.8555 72.2844 83.5455 73.2782 82.9254 73.9673C82.3184 74.643 81.4015 74.9809 80.1744 74.9809ZM80.1942 73.1126C80.6032 73.1126 80.8737 72.9536 81.0057 72.6356C81.1376 72.3043 81.2036 71.8207 81.2036 71.1847V66.9511C81.2036 66.3151 81.1376 65.8314 81.0057 65.5002C80.8737 65.1689 80.6032 65.0033 80.1942 65.0033C79.772 65.0033 79.495 65.1689 79.363 65.5002C79.2311 65.8314 79.1651 66.3151 79.1651 66.9511V71.1847C79.1651 71.8207 79.2311 72.3043 79.363 72.6356C79.495 72.9536 79.772 73.1126 80.1942 73.1126Z" fill="#363636"/>
<path d="M91.8525 74.9809C90.9289 74.9809 90.2363 74.6563 89.7745 74.007C89.3259 73.3445 89.1016 72.3043 89.1016 70.8865V67.3685C89.1016 66.07 89.3127 65.0431 89.7349 64.2878C90.1703 63.5192 90.8696 63.135 91.8327 63.135C92.5716 63.135 93.2576 63.4397 93.8909 64.0493V58.7027H96.6023V74.802H93.8909V73.9871C93.2576 74.6496 92.5782 74.9809 91.8525 74.9809ZM92.8223 73.1126C93.1653 73.1126 93.5215 72.9867 93.8909 72.735V65.3611C93.5479 65.1093 93.1917 64.9834 92.8223 64.9834C92.1362 64.9834 91.7931 65.5863 91.7931 66.7921V71.0853C91.7931 71.7345 91.8657 72.2381 92.0108 72.5958C92.156 72.9403 92.4264 73.1126 92.8223 73.1126Z" fill="#363636"/>
<path d="M105.679 74.9809C104.412 74.9809 103.482 74.6298 102.888 73.9275C102.295 73.212 101.998 72.1586 101.998 70.7673V67.3486C101.998 65.9441 102.295 64.8907 102.888 64.1884C103.495 63.4861 104.426 63.135 105.679 63.135C106.972 63.135 107.882 63.4994 108.41 64.2281C108.951 64.9569 109.221 66.0567 109.221 67.5275V69.1772H104.67V71.443C104.67 71.9995 104.749 72.4037 104.907 72.6555C105.079 72.9072 105.342 73.0331 105.699 73.0331C106.042 73.0331 106.286 72.9138 106.431 72.6753C106.589 72.4236 106.668 72.0459 106.668 71.5424V70.5685H109.202V71.3635C109.202 72.5428 108.905 73.4439 108.311 74.0666C107.717 74.6761 106.84 74.9809 105.679 74.9809ZM106.668 67.8455V66.7524C106.668 66.1561 106.596 65.7321 106.451 65.4803C106.306 65.2153 106.048 65.0828 105.679 65.0828C105.296 65.0828 105.032 65.2219 104.887 65.5002C104.742 65.7784 104.67 66.2952 104.67 67.0505V67.8455H106.668Z" fill="#363636"/>
<path d="M117.717 74.9809C116.754 74.9809 115.963 74.7225 115.343 74.2058C114.722 73.689 114.28 72.9337 114.017 71.9399L116.015 71.1648C116.319 72.4501 116.873 73.0927 117.678 73.0927C117.981 73.0927 118.212 73.0132 118.371 72.8542C118.542 72.6952 118.628 72.4766 118.628 72.1983C118.628 71.8936 118.535 71.6153 118.351 71.3635C118.166 71.0985 117.836 70.7673 117.361 70.3697L115.996 69.1772C115.415 68.7002 114.986 68.2364 114.709 67.7859C114.432 67.3354 114.294 66.7855 114.294 66.1362C114.294 65.2352 114.597 64.513 115.204 63.9698C115.824 63.4132 116.603 63.135 117.539 63.135C118.436 63.135 119.169 63.4066 119.736 63.9499C120.303 64.4799 120.673 65.2021 120.844 66.1163L119.083 66.8716C118.977 66.3416 118.799 65.911 118.549 65.5797C118.311 65.2352 118.001 65.0629 117.618 65.0629C117.341 65.0629 117.117 65.1491 116.946 65.3213C116.787 65.4936 116.708 65.7122 116.708 65.9772C116.708 66.1892 116.8 66.4145 116.985 66.653C117.17 66.8915 117.447 67.1698 117.816 67.4878L119.202 68.7598C119.795 69.2766 120.251 69.7735 120.567 70.2505C120.897 70.7143 121.062 71.2774 121.062 71.9399C121.062 72.9072 120.745 73.6559 120.112 74.1859C119.492 74.7159 118.694 74.9809 117.717 74.9809Z" fill="#363636"/>
<path d="M129.402 74.9412C128.359 74.9412 127.62 74.6894 127.185 74.1859C126.763 73.6824 126.552 72.9337 126.552 71.9399V65.0828H125.404V63.3139H126.552V59.8754H129.263V63.3139H130.985V65.0828H129.263V71.7014C129.263 72.0857 129.342 72.3639 129.501 72.5362C129.672 72.7085 129.936 72.7946 130.292 72.7946C130.622 72.7946 130.899 72.7681 131.123 72.7151V74.802C130.596 74.8948 130.022 74.9412 129.402 74.9412Z" fill="#363636"/>
<path d="M139.693 74.9809C138.427 74.9809 137.497 74.6298 136.903 73.9275C136.309 73.212 136.012 72.1586 136.012 70.7673V67.3486C136.012 65.9441 136.309 64.8907 136.903 64.1884C137.51 63.4861 138.44 63.135 139.693 63.135C140.986 63.135 141.897 63.4994 142.425 64.2281C142.965 64.9569 143.236 66.0567 143.236 67.5275V69.1772H138.684V71.443C138.684 71.9995 138.763 72.4037 138.922 72.6555C139.093 72.9072 139.357 73.0331 139.713 73.0331C140.056 73.0331 140.3 72.9138 140.445 72.6753C140.604 72.4236 140.683 72.0459 140.683 71.5424V70.5685H143.216V71.3635C143.216 72.5428 142.919 73.4439 142.326 74.0666C141.732 74.6761 140.854 74.9809 139.693 74.9809ZM140.683 67.8455V66.7524C140.683 66.1561 140.61 65.7321 140.465 65.4803C140.32 65.2153 140.063 65.0828 139.693 65.0828C139.311 65.0828 139.047 65.2219 138.902 65.5002C138.757 65.7784 138.684 66.2952 138.684 67.0505V67.8455H140.683Z" fill="#363636"/>
</g>
<g filter="url(#filter1_di_58_419)">
<path d="M33.6876 44.7917C46.0565 44.7917 56.0834 34.7647 56.0834 22.3958C56.0834 10.027 46.0565 0 33.6876 0C21.3187 0 11.2917 10.027 11.2917 22.3958C11.2917 34.7647 21.3187 44.7917 33.6876 44.7917Z" fill="#FF9B29"/>
<path d="M59.6393 41.8474L35.2796 17.5279C34.9066 17.1552 34.3097 16.5589 33.9367 16.2048L32.6124 14.863C32.2393 14.4903 31.6424 14.4903 31.2694 14.863L21.477 24.6467V22.5409C21.477 22.0191 21.048 21.5905 20.5258 21.5905H16.4223C15.9001 21.5905 15.4711 22.0191 15.4711 22.5409V30.6474L4.27978 41.8474C3.90674 42.2201 3.90674 42.8165 4.27978 43.1705L5.60408 44.4937C5.97712 44.8664 6.57399 44.8664 6.94704 44.4937L9.39046 42.0524V74.0498C9.39046 74.5715 9.81946 75.0002 10.3417 75.0002H53.5773C54.0996 75.0002 54.5286 74.5715 54.5286 74.0498V46.3572C54.5286 46.1336 54.454 45.91 54.2861 45.7236L31.344 22.8018L30.0011 21.46L31.2881 20.1742C31.6611 19.8015 32.258 19.8015 32.6124 20.1742L56.972 44.5123C57.3451 44.8664 57.9233 44.8477 58.2777 44.4937L59.6206 43.1519C59.9937 42.8165 59.9937 42.2201 59.6393 41.8474ZM38.3012 60.6321C38.3012 61.1166 37.9096 61.5266 37.4246 61.5266H25.1888C24.7039 61.5266 24.3122 61.1353 24.3122 60.6321V48.2394C24.3122 47.7549 24.7039 47.3635 25.1888 47.3635H37.4246C37.9096 47.3635 38.3012 47.7549 38.3012 48.2394V60.6321Z" fill="#123E58"/>
<path d="M59.6393 41.8474L35.2796 17.5279C34.9066 17.1552 34.3097 16.5589 33.9367 16.2048L32.6124 14.863C32.2393 14.4903 31.6424 14.4903 31.2694 14.863L21.477 24.6467V22.5409C21.477 22.0191 21.048 21.5905 20.5258 21.5905H16.4223C15.9001 21.5905 15.4711 22.0191 15.4711 22.5409V30.6474L4.27978 41.8474C3.90674 42.2201 3.90674 42.8165 4.27978 43.1705L5.60408 44.4937C5.97712 44.8664 6.57399 44.8664 6.94704 44.4937L9.39046 42.0524V74.0498C9.39046 74.5715 9.81946 75.0002 10.3417 75.0002H53.5773C54.0996 75.0002 54.5286 74.5715 54.5286 74.0498V46.3572C54.5286 46.1336 54.454 45.91 54.2861 45.7236L31.344 22.8018L30.0011 21.46L31.2881 20.1742C31.6611 19.8015 32.258 19.8015 32.6124 20.1742L56.972 44.5123C57.3451 44.8664 57.9233 44.8477 58.2777 44.4937L59.6206 43.1519C59.9937 42.8165 59.9937 42.2201 59.6393 41.8474ZM38.3012 60.6321C38.3012 61.1166 37.9096 61.5266 37.4246 61.5266H25.1888C24.7039 61.5266 24.3122 61.1353 24.3122 60.6321V48.2394C24.3122 47.7549 24.7039 47.3635 25.1888 47.3635H37.4246C37.9096 47.3635 38.3012 47.7549 38.3012 48.2394V60.6321Z" fill="#123E58"/>
</g>
<defs>
<filter id="filter0_di_58_419" x="58.5425" y="34.1704" width="88.6936" height="48.8105" filterUnits="userSpaceOnUse" color-interpolation-filters="sRGB">
<feFlood flood-opacity="0" result="BackgroundImageFix"/>
<feColorMatrix in="SourceAlpha" type="matrix" values="0 0 0 0 0 0 0 0 0 0 0 0 0 0 0 0 0 0 127 0" result="hardAlpha"/>
<feOffset dy="4"/>
<feGaussianBlur stdDeviation="2"/>
<feComposite in2="hardAlpha" operator="out"/>
<feColorMatrix type="matrix" values="0 0 0 0 0 0 0 0 0 0 0 0 0 0 0 0 0 0 0.25 0"/>
<feBlend mode="normal" in2="BackgroundImageFix" result="effect1_dropShadow_58_419"/>
<feBlend mode="normal" in="SourceGraphic" in2="effect1_dropShadow_58_419" result="shape"/>
<feColorMatrix in="SourceAlpha" type="matrix" values="0 0 0 0 0 0 0 0 0 0 0 0 0 0 0 0 0 0 127 0" result="hardAlpha"/>
<feOffset dy="4"/>
<feGaussianBlur stdDeviation="2"/>
<feComposite in2="hardAlpha" operator="arithmetic" k2="-1" k3="1"/>
<feColorMatrix type="matrix" values="0 0 0 0 0 0 0 0 0 0 0 0 0 0 0 0 0 0 0.25 0"/>
<feBlend mode="normal" in2="shape" result="effect2_innerShadow_58_419"/>
</filter>
<filter id="filter1_di_58_419" x="0" y="0" width="63.9028" height="83" filterUnits="userSpaceOnUse" color-interpolation-filters="sRGB">
<feFlood flood-opacity="0" result="BackgroundImageFix"/>
<feColorMatrix in="SourceAlpha" type="matrix" values="0 0 0 0 0 0 0 0 0 0 0 0 0 0 0 0 0 0 127 0" result="hardAlpha"/>
<feOffset dy="4"/>
<feGaussianBlur stdDeviation="2"/>
<feComposite in2="hardAlpha" operator="out"/>
<feColorMatrix type="matrix" values="0 0 0 0 0 0 0 0 0 0 0 0 0 0 0 0 0 0 0.25 0"/>
<feBlend mode="normal" in2="BackgroundImageFix" result="effect1_dropShadow_58_419"/>
<feBlend mode="normal" in="SourceGraphic" in2="effect1_dropShadow_58_419" result="shape"/>
<feColorMatrix in="SourceAlpha" type="matrix" values="0 0 0 0 0 0 0 0 0 0 0 0 0 0 0 0 0 0 127 0" result="hardAlpha"/>
<feOffset dy="4"/>
<feGaussianBlur stdDeviation="15"/>
<feComposite in2="hardAlpha" operator="arithmetic" k2="-1" k3="1"/>
<feColorMatrix type="matrix" values="0 0 0 0 0 0 0 0 0 0 0 0 0 0 0 0 0 0 0.2 0"/>
<feBlend mode="normal" in2="shape" result="effect2_innerShadow_58_419"/>
</filter>
</defs>
</svg>
