<svg width="108" height="185" viewBox="0 0 108 185" fill="none" xmlns="http://www.w3.org/2000/svg">
<g filter="url(#filter0_di_58_1021)">
<path d="M56.7109 72.7166C78.1702 72.7166 95.5663 56.4384 95.5663 36.3583C95.5663 16.2782 78.1702 0 56.7109 0C35.2516 0 17.8555 16.2782 17.8555 36.3583C17.8555 56.4384 35.2516 72.7166 56.7109 72.7166Z" fill="#FF9B29"/>
<path d="M101.736 67.9363L59.4733 28.4551C58.8261 27.8501 57.7906 26.882 57.1434 26.3071L54.8458 24.1289C54.1986 23.5238 53.163 23.5238 52.5158 24.1289L35.5267 40.0121V36.5934C35.5267 35.7463 34.7824 35.0505 33.8763 35.0505H26.757C25.851 35.0505 25.1067 35.7463 25.1067 36.5934V49.7538L5.69048 67.9363C5.04328 68.5414 5.04328 69.5095 5.69048 70.0844L7.98806 72.2324C8.63527 72.8375 9.6708 72.8375 10.318 72.2324L14.5572 68.2691V120.215C14.5572 121.062 15.3015 121.758 16.2076 121.758H91.2188C92.1248 121.758 92.8691 121.062 92.8691 120.215V75.2578C92.8691 74.8947 92.7397 74.5317 92.4485 74.2291L52.6453 37.017L50.3153 34.8387L52.5482 32.7512C53.1954 32.1461 54.2309 32.1461 54.8458 32.7512L97.1083 72.2626C97.7555 72.8375 98.7587 72.8072 99.3736 72.2324L101.704 70.0541C102.351 69.5095 102.351 68.5414 101.736 67.9363ZM64.7157 98.4322C64.7157 99.2188 64.0361 99.8844 63.1947 99.8844H41.9664C41.125 99.8844 40.4454 99.249 40.4454 98.4322V78.3134C40.4454 77.5268 41.125 76.8915 41.9664 76.8915H63.1947C64.0361 76.8915 64.7157 77.5268 64.7157 78.3134V98.4322Z" fill="#123E58"/>
<path d="M101.736 67.9363L59.4733 28.4551C58.8261 27.8501 57.7906 26.882 57.1434 26.3071L54.8458 24.1289C54.1986 23.5238 53.163 23.5238 52.5158 24.1289L35.5267 40.0121V36.5934C35.5267 35.7463 34.7824 35.0505 33.8763 35.0505H26.757C25.851 35.0505 25.1067 35.7463 25.1067 36.5934V49.7538L5.69048 67.9363C5.04328 68.5414 5.04328 69.5095 5.69048 70.0844L7.98806 72.2324C8.63527 72.8375 9.6708 72.8375 10.318 72.2324L14.5572 68.2691V120.215C14.5572 121.062 15.3015 121.758 16.2076 121.758H91.2188C92.1248 121.758 92.8691 121.062 92.8691 120.215V75.2578C92.8691 74.8947 92.7397 74.5317 92.4485 74.2291L52.6453 37.017L50.3153 34.8387L52.5482 32.7512C53.1954 32.1461 54.2309 32.1461 54.8458 32.7512L97.1083 72.2626C97.7555 72.8375 98.7587 72.8072 99.3736 72.2324L101.704 70.0541C102.351 69.5095 102.351 68.5414 101.736 67.9363ZM64.7157 98.4322C64.7157 99.2188 64.0361 99.8844 63.1947 99.8844H41.9664C41.125 99.8844 40.4454 99.249 40.4454 98.4322V78.3134C40.4454 77.5268 41.125 76.8915 41.9664 76.8915H63.1947C64.0361 76.8915 64.7157 77.5268 64.7157 78.3134V98.4322Z" fill="#123E58"/>
</g>
<g filter="url(#filter1_di_58_1021)">
<path d="M4.0981 130.203H7.67887V148.882H4.0981V130.203Z" fill="#363636"/>
<path d="M10.5334 135.553H13.7463V136.729C14.6946 135.792 15.8065 135.323 17.0818 135.323C17.6541 135.323 18.1446 135.461 18.5534 135.738C18.9621 135.999 19.2646 136.399 19.4608 136.937C20.4418 135.861 21.6354 135.323 23.0416 135.323C23.8264 135.323 24.4559 135.592 24.9301 136.13C25.4206 136.668 25.6658 137.444 25.6658 138.459V148.882H22.4775V138.759C22.4775 138.267 22.3876 137.921 22.2077 137.721C22.0442 137.521 21.7908 137.421 21.4474 137.421C21.1858 137.421 20.8915 137.49 20.5645 137.629C20.2538 137.767 19.9677 137.959 19.7061 138.205V138.459V148.882H16.5422V138.759C16.5422 138.267 16.4523 137.921 16.2725 137.721C16.0926 137.521 15.831 137.421 15.4876 137.421C15.226 137.421 14.9399 137.49 14.6292 137.629C14.3186 137.767 14.0243 137.959 13.7463 138.205V148.882H10.5334V135.553Z" fill="#363636"/>
<path d="M32.4294 149.09C30.9088 149.09 29.7724 148.698 29.0203 147.914C28.2682 147.114 27.8921 145.961 27.8921 144.455V139.981C27.8921 138.474 28.2682 137.329 29.0203 136.545C29.7724 135.745 30.9088 135.346 32.4294 135.346C33.95 135.346 35.0863 135.745 35.8385 136.545C36.6069 137.329 36.9912 138.474 36.9912 139.981V144.455C36.9912 145.961 36.6069 147.114 35.8385 147.914C35.0863 148.698 33.95 149.09 32.4294 149.09ZM32.4539 146.922C32.9608 146.922 33.296 146.738 33.4595 146.369C33.623 145.984 33.7047 145.423 33.7047 144.685V139.773C33.7047 139.035 33.623 138.474 33.4595 138.09C33.296 137.706 32.9608 137.513 32.4539 137.513C31.9307 137.513 31.5873 137.706 31.4238 138.09C31.2603 138.474 31.1786 139.035 31.1786 139.773V144.685C31.1786 145.423 31.2603 145.984 31.4238 146.369C31.5873 146.738 31.9307 146.922 32.4539 146.922ZM32.8954 129.65H36.2799L33.3614 134.262H31.4238L32.8954 129.65Z" fill="#363636"/>
<path d="M38.342 135.553H41.5794L43.0264 145.123L44.4489 135.553H47.6618L44.8413 148.882H41.138L38.342 135.553Z" fill="#363636"/>
<path d="M53.5062 149.09C51.9366 149.09 50.7839 148.682 50.0481 147.868C49.3123 147.037 48.9444 145.815 48.9444 144.201V140.235C48.9444 138.605 49.3123 137.383 50.0481 136.568C50.8002 135.753 51.9529 135.346 53.5062 135.346C55.1086 135.346 56.2368 135.768 56.8908 136.614C57.5612 137.46 57.8963 138.736 57.8963 140.442V142.356H52.2554V144.985C52.2554 145.631 52.3535 146.1 52.5497 146.392C52.7623 146.684 53.0893 146.83 53.5308 146.83C53.9559 146.83 54.2584 146.692 54.4382 146.415C54.6344 146.123 54.7325 145.685 54.7325 145.1V143.97H57.8718V144.893C57.8718 146.261 57.5039 147.307 56.7682 148.029C56.0324 148.736 54.9451 149.09 53.5062 149.09ZM54.7325 140.811V139.543C54.7325 138.851 54.6426 138.359 54.4627 138.067C54.2829 137.759 53.964 137.606 53.5062 137.606C53.0321 137.606 52.7051 137.767 52.5252 138.09C52.3453 138.413 52.2554 139.012 52.2554 139.889V140.811H54.7325Z" fill="#363636"/>
<path d="M60.2579 130.826H63.5934V133.432H60.2579V130.826ZM60.2579 135.553H63.5934V148.882H60.2579V135.553Z" fill="#363636"/>
<path d="M70.0939 149.09C68.9003 149.09 67.9193 148.79 67.1508 148.191C66.3823 147.591 65.8346 146.715 65.5076 145.562L67.9847 144.662C68.3607 146.153 69.0475 146.899 70.0448 146.899C70.4209 146.899 70.707 146.807 70.9032 146.622C71.1158 146.438 71.2221 146.184 71.2221 145.861C71.2221 145.508 71.1076 145.185 70.8787 144.893C70.6498 144.585 70.241 144.201 69.6524 143.74L67.9601 142.356C67.2407 141.803 66.7093 141.265 66.366 140.742C66.0226 140.219 65.8509 139.581 65.8509 138.828C65.8509 137.782 66.227 136.945 66.9791 136.314C67.7476 135.669 68.7123 135.346 69.8732 135.346C70.985 135.346 71.8924 135.661 72.5955 136.291C73.2986 136.906 73.7564 137.744 73.969 138.805L71.7862 139.681C71.6554 139.066 71.4346 138.566 71.124 138.182C70.8297 137.782 70.4454 137.583 69.9713 137.583C69.6279 137.583 69.3499 137.682 69.1374 137.882C68.9412 138.082 68.8431 138.336 68.8431 138.643C68.8431 138.889 68.9575 139.151 69.1864 139.427C69.4153 139.704 69.7587 140.027 70.2165 140.396L71.9333 141.872C72.6691 142.471 73.2332 143.048 73.6256 143.601C74.0344 144.14 74.2387 144.793 74.2387 145.562C74.2387 146.684 73.8463 147.553 73.0615 148.167C72.293 148.782 71.3038 149.09 70.0939 149.09Z" fill="#363636"/>
<path d="M82.027 135.553H85.3625V136.868C86.4907 135.853 87.6352 135.346 88.7961 135.346C89.5973 135.346 90.1941 135.622 90.5865 136.176C90.9953 136.729 91.1997 137.429 91.1997 138.274V148.882H87.8641V138.897C87.8641 138.467 87.7906 138.151 87.6434 137.952C87.5126 137.752 87.2674 137.652 86.9076 137.652C86.5152 137.652 86.0002 137.867 85.3625 138.297V148.882H82.027V135.553Z" fill="#363636"/>
<path d="M97.9352 149.09C96.4146 149.09 95.2783 148.698 94.5262 147.914C93.774 147.114 93.398 145.961 93.398 144.455V139.981C93.398 138.474 93.774 137.329 94.5262 136.545C95.2783 135.745 96.4146 135.346 97.9352 135.346C99.4558 135.346 100.592 135.745 101.344 136.545C102.113 137.329 102.497 138.474 102.497 139.981V144.455C102.497 145.961 102.113 147.114 101.344 147.914C100.592 148.698 99.4558 149.09 97.9352 149.09ZM97.9598 146.922C98.4666 146.922 98.8018 146.738 98.9653 146.369C99.1288 145.984 99.2106 145.423 99.2106 144.685V139.773C99.2106 139.035 99.1288 138.474 98.9653 138.09C98.8018 137.706 98.4666 137.513 97.9598 137.513C97.4365 137.513 97.0932 137.706 96.9297 138.09C96.7662 138.474 96.6844 139.035 96.6844 139.773V144.685C96.6844 145.423 96.7662 145.984 96.9297 146.369C97.0932 146.738 97.4365 146.922 97.9598 146.922Z" fill="#363636"/>
<path d="M4 158.113H6.52615L11.3577 168.767V158.113H14.3499V176.792H11.9464L7.09025 165.631V176.792H4V158.113Z" fill="#363636"/>
<path d="M25.8505 177C24.3299 177 23.1936 176.608 22.4415 175.824C21.6893 175.024 21.3133 173.871 21.3133 172.365V167.891C21.3133 166.384 21.6893 165.239 22.4415 164.455C23.1936 163.655 24.3299 163.256 25.8505 163.256C27.3711 163.256 28.5075 163.655 29.2596 164.455C30.0281 165.239 30.4123 166.384 30.4123 167.891V172.365C30.4123 173.871 30.0281 175.024 29.2596 175.824C28.5075 176.608 27.3711 177 25.8505 177ZM25.8751 174.832C26.3819 174.832 26.7171 174.648 26.8806 174.279C27.0441 173.894 27.1259 173.333 27.1259 172.595V167.683C27.1259 166.945 27.0441 166.384 26.8806 166C26.7171 165.616 26.3819 165.423 25.8751 165.423C25.3519 165.423 25.0085 165.616 24.845 166C24.6815 166.384 24.5997 166.945 24.5997 167.683V172.595C24.5997 173.333 24.6815 173.894 24.845 174.279C25.0085 174.648 25.3519 174.832 25.8751 174.832Z" fill="#363636"/>
<path d="M40.3227 177C39.1781 177 38.3197 176.623 37.7475 175.87C37.1915 175.101 36.9136 173.894 36.9136 172.249V168.168C36.9136 166.661 37.1752 165.47 37.6984 164.593C38.238 163.702 39.1046 163.256 40.2981 163.256C41.2138 163.256 42.064 163.609 42.8488 164.317V158.113H46.2089V176.792H42.8488V175.847C42.064 176.616 41.2219 177 40.3227 177ZM41.5244 174.832C41.9495 174.832 42.391 174.686 42.8488 174.394V165.839C42.4237 165.546 41.9822 165.4 41.5244 165.4C40.6742 165.4 40.2491 166.1 40.2491 167.499V172.48C40.2491 173.233 40.339 173.818 40.5189 174.233C40.6987 174.632 41.0339 174.832 41.5244 174.832Z" fill="#363636"/>
<path d="M57.4572 177C55.8875 177 54.7348 176.593 53.999 175.778C53.2633 174.948 52.8954 173.725 52.8954 172.111V168.145C52.8954 166.515 53.2633 165.293 53.999 164.478C54.7512 163.663 55.9039 163.256 57.4572 163.256C59.0595 163.256 60.1877 163.679 60.8417 164.524C61.5121 165.37 61.8473 166.646 61.8473 168.352V170.266H56.2064V172.895C56.2064 173.541 56.3045 174.01 56.5007 174.302C56.7132 174.594 57.0402 174.74 57.4817 174.74C57.9068 174.74 58.2093 174.602 58.3892 174.325C58.5854 174.033 58.6835 173.595 58.6835 173.01V171.88H61.8228V172.803C61.8228 174.171 61.4549 175.217 60.7191 175.939C59.9833 176.646 58.896 177 57.4572 177ZM58.6835 168.721V167.453C58.6835 166.761 58.5935 166.269 58.4137 165.977C58.2338 165.669 57.915 165.516 57.4572 165.516C56.983 165.516 56.656 165.677 56.4761 166C56.2963 166.323 56.2064 166.922 56.2064 167.799V168.721H58.6835Z" fill="#363636"/>
<path d="M72.3759 177C71.1823 177 70.2013 176.7 69.4328 176.101C68.6644 175.501 68.1166 174.625 67.7896 173.472L70.2667 172.572C70.6428 174.064 71.3295 174.809 72.3269 174.809C72.7029 174.809 72.9891 174.717 73.1853 174.532C73.3978 174.348 73.5041 174.094 73.5041 173.771C73.5041 173.418 73.3897 173.095 73.1608 172.803C72.9318 172.495 72.5231 172.111 71.9345 171.65L70.2422 170.266C69.5228 169.713 68.9914 169.175 68.648 168.652C68.3047 168.129 68.133 167.491 68.133 166.738C68.133 165.693 68.509 164.855 69.2612 164.224C70.0296 163.579 70.9943 163.256 72.1552 163.256C73.267 163.256 74.1745 163.571 74.8776 164.201C75.5806 164.816 76.0384 165.654 76.251 166.715L74.0682 167.591C73.9374 166.976 73.7167 166.477 73.406 166.092C73.1117 165.693 72.7275 165.493 72.2533 165.493C71.91 165.493 71.632 165.593 71.4194 165.792C71.2232 165.992 71.1251 166.246 71.1251 166.553C71.1251 166.799 71.2396 167.061 71.4685 167.338C71.6974 167.614 72.0407 167.937 72.4986 168.306L74.2154 169.782C74.9511 170.382 75.5152 170.958 75.9076 171.512C76.3164 172.05 76.5208 172.703 76.5208 173.472C76.5208 174.594 76.1284 175.463 75.3436 176.078C74.5751 176.693 73.5859 177 72.3759 177Z" fill="#363636"/>
<path d="M86.8557 176.954C85.564 176.954 84.6484 176.662 84.1088 176.078C83.5856 175.493 83.324 174.625 83.324 173.472V165.516H81.9015V163.463H83.324V159.474H86.684V163.463H88.8178V165.516H86.684V173.195C86.684 173.641 86.7821 173.964 86.9783 174.164C87.1909 174.363 87.5179 174.463 87.9594 174.463C88.3681 174.463 88.7115 174.433 88.9895 174.371V176.792C88.3354 176.9 87.6242 176.954 86.8557 176.954Z" fill="#363636"/>
<path d="M99.6099 177C98.0402 177 96.8875 176.593 96.1518 175.778C95.416 174.948 95.0481 173.725 95.0481 172.111V168.145C95.0481 166.515 95.416 165.293 96.1518 164.478C96.9039 163.663 98.0566 163.256 99.6099 163.256C101.212 163.256 102.34 163.679 102.994 164.524C103.665 165.37 104 166.646 104 168.352V170.266H98.3591V172.895C98.3591 173.541 98.4572 174.01 98.6534 174.302C98.8659 174.594 99.1929 174.74 99.6344 174.74C100.06 174.74 100.362 174.602 100.542 174.325C100.738 174.033 100.836 173.595 100.836 173.01V171.88H103.975V172.803C103.975 174.171 103.608 175.217 102.872 175.939C102.136 176.646 101.049 177 99.6099 177ZM100.836 168.721V167.453C100.836 166.761 100.746 166.269 100.566 165.977C100.387 165.669 100.068 165.516 99.6099 165.516C99.1357 165.516 98.8087 165.677 98.6289 166C98.449 166.323 98.3591 166.922 98.3591 167.799V168.721H100.836Z" fill="#363636"/>
</g>
<defs>
<filter id="filter0_di_58_1021" x="1.20508" y="0" width="104.988" height="129.758" filterUnits="userSpaceOnUse" color-interpolation-filters="sRGB">
<feFlood flood-opacity="0" result="BackgroundImageFix"/>
<feColorMatrix in="SourceAlpha" type="matrix" values="0 0 0 0 0 0 0 0 0 0 0 0 0 0 0 0 0 0 127 0" result="hardAlpha"/>
<feOffset dy="4"/>
<feGaussianBlur stdDeviation="2"/>
<feComposite in2="hardAlpha" operator="out"/>
<feColorMatrix type="matrix" values="0 0 0 0 0 0 0 0 0 0 0 0 0 0 0 0 0 0 0.25 0"/>
<feBlend mode="normal" in2="BackgroundImageFix" result="effect1_dropShadow_58_1021"/>
<feBlend mode="normal" in="SourceGraphic" in2="effect1_dropShadow_58_1021" result="shape"/>
<feColorMatrix in="SourceAlpha" type="matrix" values="0 0 0 0 0 0 0 0 0 0 0 0 0 0 0 0 0 0 127 0" result="hardAlpha"/>
<feOffset dy="4"/>
<feGaussianBlur stdDeviation="15"/>
<feComposite in2="hardAlpha" operator="arithmetic" k2="-1" k3="1"/>
<feColorMatrix type="matrix" values="0 0 0 0 0 0 0 0 0 0 0 0 0 0 0 0 0 0 0.2 0"/>
<feBlend mode="normal" in2="shape" result="effect2_innerShadow_58_1021"/>
</filter>
<filter id="filter1_di_58_1021" x="0" y="129.65" width="108" height="55.3503" filterUnits="userSpaceOnUse" color-interpolation-filters="sRGB">
<feFlood flood-opacity="0" result="BackgroundImageFix"/>
<feColorMatrix in="SourceAlpha" type="matrix" values="0 0 0 0 0 0 0 0 0 0 0 0 0 0 0 0 0 0 127 0" result="hardAlpha"/>
<feOffset dy="4"/>
<feGaussianBlur stdDeviation="2"/>
<feComposite in2="hardAlpha" operator="out"/>
<feColorMatrix type="matrix" values="0 0 0 0 0 0 0 0 0 0 0 0 0 0 0 0 0 0 0.25 0"/>
<feBlend mode="normal" in2="BackgroundImageFix" result="effect1_dropShadow_58_1021"/>
<feBlend mode="normal" in="SourceGraphic" in2="effect1_dropShadow_58_1021" result="shape"/>
<feColorMatrix in="SourceAlpha" type="matrix" values="0 0 0 0 0 0 0 0 0 0 0 0 0 0 0 0 0 0 127 0" result="hardAlpha"/>
<feOffset dy="4"/>
<feGaussianBlur stdDeviation="2"/>
<feComposite in2="hardAlpha" operator="arithmetic" k2="-1" k3="1"/>
<feColorMatrix type="matrix" values="0 0 0 0 0 0 0 0 0 0 0 0 0 0 0 0 0 0 0.25 0"/>
<feBlend mode="normal" in2="shape" result="effect2_innerShadow_58_1021"/>
</filter>
</defs>
</svg>
